<?xml version="1.0" encoding="utf-8"?>
<!-- Generator: Adobe Illustrator 18.1.1, SVG Export Plug-In . SVG Version: 6.00 Build 0)  -->
<svg version="1.1" id="wechat" xmlns="http://www.w3.org/2000/svg" xmlns:xlink="http://www.w3.org/1999/xlink" x="0px" y="0px"
	 viewBox="0 0 2000 2000" enable-background="new 0 0 2000 2000" xml:space="preserve">
<g>
	<path fill="#FFFFFF" d="M1243.7,760.6c7.9,17.8,14.8,34.1,22.7,51.9c7.4,0.5,16.8,1.5,26.7,1.5c0,36,0,70.6,0,105.2
		c17.8,0,35.6,0,55.3,0c0,19.8,0,36,0,52.8c18.3,0,34.6,0,53.3,0c0-17.8,0-34.6,0-50.9c18.8,0,35.1,0,51.4,0c0,53.3,0,106.2,0,158.5
		c31.1,0.5,61.7,1,92.3,0.5c12.8-0.5,16.8,4.4,15.8,16.3c-0.5,11.9-0.5,22.7-0.5,37c-37,0-72.1,0-107.7,0c0,17.3,0,34.6,0,52.3
		c-35.1,0-69.6,0-105.7,0c0-53.3,0-105.7,0-159c-14.8,0-27.7,0.5-40,0c-10.9-0.5-13.8,4-12.8,13.8c0.5,12.8,0,26.2,0,39.5
		c-9.4,0-15.8-1-21.2,0.5c-3.5,1-9.4,4.9-9.9,7.9c-1,14.8-0.5,29.1-0.5,44.4c11.9,0.5,20.7,1.5,30.1,1.5c0,18.3,0,34.6,0,51.4
		c-10.4,0.5-19.8,1-26.7,1.5c-5.4,13.8-9.9,26.2-16.3,37c-7.4,11.4-9.9,22.2-9.9,35.6c0.5,28.1-1,55.8-1.5,84
		c17.8,1.5,35.6,3,55.3,4.4c0,13.3-0.5,26.2,0.5,39c0.5,4.4,5.4,11.4,8.9,11.9c13.8,1.5,28.1,0.5,44.4,0.5c0-13.3,1-25.2-0.5-36
		c-1.5-14.3,4.4-18.3,17.8-17.3c11.4,1,22.7-0.5,34.1-1c0-17.8,0-35.1,0-52.3c35.1,0,70.1,0,108.1,0c0-35.1,0-69.6,0-105.7
		c36.5,0,70.6,0,106.7,0c0,16.8,0,33.1,0,51.4c19.8,0,37,0,55.3,0c0.5-17.8,1.5-36,2-54.3c34.1,0,67.7,0,103.7,0
		c0-16.8,0-33.6,0-50.4c36.5,0,70.1,0,107.7,0c0,17.8,0,34.6,0,51.4c17.8-0.5,35.6-0.5,53.3-1.5c-0.5-35.1-0.5-69.6-0.5-104.2
		c-35.1,0-70.6,0-106.7,0c0-19.8,0-37,0-53.3c-17.3,0-34.6,0-53.3,0c0-18.8,0-36,0-53.3c-17.3,0-35.1,0-55.3,0
		c1.5-19.8,2.5-37,3.5-54.3c17.3,0,34.6,0.5,51.9,0.5c-0.5-13.8-1-28.1-0.5-42.5c0.5-3.5,4.9-10.4,8.4-10.9
		c13.8-1,28.1-0.5,45.9-0.5c0,18.8,0,36,0,53.3c52.3,0,104.7,0,157.5,0c0-18.8,0-35.6,0-54.3c-17.8,0-34.1,0-50.4,0
		c0-18.3,0-34.6,0-52.8c17.8,0,34.1,0,50.9,0c0-18.3,0-34.6,0-51.9c-35.6,0-70.1,0-104.7,0c0,16.8,0,33.1,0,51.4
		c-18.8,0-35.1,0-53.3,0c0-16.8,0-34.1,0-51.4c-35.1,0-70.6,0-108.6,0c1.5-19.8,2.5-36,4-51.9c-18.3-0.5-36-1-54.3-1.5
		c-1,16.8-1.5,33.1-2.5,50.9c-16.8,1.5-33.1,2.5-48.9,3.5c-1.5-17.8-3.5-35.6-5.4-55.3c-33.6,0-67.7,0-103.2,0c0-36,0-70.6,0-107.2
		c16.8,0,33.1,0,50.4,0c0-18.8,0-35.1,0-52.3c-30.1-0.5-60.7-0.5-91.4-2c-4.4-0.5-12.8-4.4-13.3-7.4c-1-32.6-0.5-64.7-0.5-100.2
		c36.5,0,71.1,0,105.7,0c0-54.3,0-106.2,0-158.5c-17.8,0-34.1,0-52.3,0c0,35.6,0,70.1,0,106.7c-18.8,0-35.1,0-53.3,0
		c0,18.3,0,34.6,0,52.8c-26.7,0-51.4-0.5-76.5,0c-10.9,0.5-21.7,2-32.1,3c0.5,4.4,2.5,9.4,2.5,14.3c0,42.5,0.5,85.4-0.5,127.9
		c-0.5,11.9,3.5,15.8,15.3,14.8c12.3-0.5,25.2,0,38.5,0c0,14.8,0.5,27.2,0,39c-0.5,10.9,3,15.3,13.8,14.3
		c12.8-0.5,25.2-0.5,40.5-0.5c-1.5,19.8-3,38-4.4,55.3c-35.6,0-70.6,0.5-106.2,0.5c1,16.8,2,33.1,3.5,51.4
		C1310.4,760.6,1276.8,760.6,1243.7,760.6z M1347.4,1292.9c0-15.3-0.5-30.1,0.5-44.4c0-2.5,5.4-7.4,8.4-7.4
		c14.3-0.5,28.6-0.5,43-0.5c0,18.8,0,35.6,0,52.3C1382.5,1292.9,1366.2,1292.9,1347.4,1292.9z M1615.6,922c17.8,0,36,0,54.3,0
		c-1.5,16.8-3,33.1-4.4,50.4c-2.5,0.5-4.4,1.5-6.4,1.5C1610.6,975.4,1608.6,973.4,1615.6,922z M1614.6,1141.8c0-2.5,4.9-7.4,7.9-7.4
		c13.8-0.5,28.1-0.5,43-0.5c1.5,17.8,3.5,34.6,4.9,50.9c-17.8,1-35.6,2-56.3,3.5C1614.1,1170.9,1613.6,1156.1,1614.6,1141.8z
		 M1719.3,1080.1c-14.8,0-29.1,0.5-43.5-0.5c-3-0.5-7.9-5.4-7.9-9.4c-1-13.8-0.5-27.7-0.5-42.5c17.8,0,34.1,0,51.9,0
		C1719.3,1045,1719.3,1061.3,1719.3,1080.1z M1719.3,867.7c1,17.3,2.5,34.1,3.5,51.4c-17.3,0.5-35.1,1.5-52.3,2.5
		c-1.5-17.8-2.5-35.1-4.4-53.8C1685.7,867.7,1702,867.7,1719.3,867.7z M1561.7,759.1c18.8,1,37,2.5,55.3,3.5
		c-1,9.9-2.5,19.8-3.5,30.1c-0.5,6.4,0,12.8,0,19.8c-18.8,0-35.1,0-52.3,0C1561.7,795.1,1561.7,778.8,1561.7,759.1z M1508.4,867.7
		c17.8,0,34.1,0,51.4,0c0,17.3,0,33.6,0,51.4c-17.8,0-34.1,0-51.4,0C1508.4,902.3,1508.4,885,1508.4,867.7z M1505.9,705.8
		c0,19.3,0,36,0,53.3c-16.8,0-33.1,0-50.4,0c-1.5-16.8-3-33.1-4.4-49.9C1468.9,707.7,1486.7,706.7,1505.9,705.8z M1356.3,813.9
		c32.1-1,63.7-0.5,96.3-0.5c0,18.3,0,34.1,0,52.8c-33.1,0-66.7,3.5-98.8-1.5c-15.8-2.5-4-26.2-6.4-39.5
		C1347.4,821.8,1353.3,813.9,1356.3,813.9z"/>
	<path fill="#FFFFFF" d="M1186.9,1454.9c-18.8,0-35.1,0-53.3,0c0,35.1,0,69.1,0,104.2c-18.8,0-35.1,0-51.9,0c0-88.9,0-175.8,0-265.2
		c17.8,0,34.1,0,51.4,0c0-10.9,0-20.2,0-31.6c-26.7,0-52.3,0-78,0c-27.7,0-27.7,0-29.1,26.7c0,1-1,2-2.5,4.4c-15.8,0-33.1,0-49.9,0
		c0,30.6-0.5,61.7,0,92.3c0.5,10.9-2.5,16.3-14.8,15.3c-11.9-1-24.2-0.5-39-0.5c0-36.5,0-71.6,0-107.7c-17.3,0-34.6,0-51.9,0
		c-0.5-4.4-1.5-6.4-1-8.9c2.5-26.2-3-21.7-22.7-22.2c-15.8-0.5-32.6,1.5-47.4-2.5c-35.1-9.9-54.3-35.6-59.8-70.6
		c-10.4,0-19.8,0-29.1,0c0,35.6,0,69.6,0,105.2c14.3,0,27.7-0.5,40.5,0.5c4,0.5,10.9,4.9,10.9,7.9c1.5,14.3,0.5,28.1,0.5,43.5
		c-4.4,0.5-6.9,1.5-9.9,1.5c-14.3,1.5-35.1-2-41.5,5.4c-7.4,9.4-2,28.6-2,43.5c0,1,0.5,2,0.5,3c35.1-0.5,70.1-0.5,105.7-0.5
		c0,17.3,0,35.1,0,54.8c18.3,0,35.1,0,53.3,0c0,18.8,0,35.1,0,53.3c17.8,0,34.6,0,53.3,0c0,18.3,0,35.1,0,52.8c18.8,0,35.1,0,53.3,0
		c0-15.3,0.5-30.1-0.5-44.4c-0.5-3-7.4-7.4-11.4-7.4c-12.8-1-26.2-0.5-40-0.5c0-18.3,0-34.6,0-52.3c35.1,0,69.6,0,104.2,0
		c0,54.3,0,108.1,0,161.5c-3-1-5.9-2.5-8.9-2.5c-49.9,0.5-99.3,0.5-149.1,1.5c0-17.8,0-35.1,0-55.8c-19.8,1.5-37,2.5-53.8,4
		c0,17.3,0.5,34.6,0.5,51.9c-14.3-0.5-28.1-0.5-42.5-1.5c-8.9-0.5-11.9,3.5-11.4,11.9c0.5,12.8,0,26.2,0,40c-18.8,1-35.6,2-52.3,3
		c0,16.8,0,33.6,0,52.3c-56.3,0-108.1,0-162.5,0c1.5,19.8,3,37,4,54.8c15.8-1,32.1-2,48.4-3c1.5,20.7,3.5,38.5,4.4,56.3
		c16.3-1.5,32.1-2.5,50.9-4c0-17.3,0-34.1,0-51.9c13.3,0,24.7,0.5,35.1-0.5c13.8-1.5,18.3,3.5,17.8,17.3c-1,29.1-0.5,58.3-0.5,90.4
		c19.3,0,36.5,0,54.3,0c0-35.1,0-70.1,0-105.7c17.8,0,34.6,0,53.3,0c0,17.8,0,34.1,0,51.9c13.8,0,26.2,0.5,38-0.5
		c11.4-0.5,15.8,3,15.3,14.8c-1,12.3-0.5,25.2-0.5,39c19.8,0,36.5,0,53.3,0c0-35.1,0-70.1,0-107.2c9.9,0,17.3,0,25.2,0
		c28.6,0,28.6,0,28.6-29.1c0-6.9,0-14.3,0-23.7c16.3,0,31.1-1,45.4,0.5c3,0.5,7.4,9.4,7.4,14.3c0.5,48.4,0.5,97.3,0.5,145.7
		c17.3,0,34.6,0,53.3,0c0-19.8,0-36,0-52.3c18.8,0,35.6,0,52.3,0c0,52.3,0,105.2,0,157.5c20.2,0,36.5,0,54.3,0
		c0-35.1,0-69.6,0-105.7c17.8,0,34.1,0,52.8,0c0-13.8,0.5-26.2-0.5-38c-1-12.8,4-16.8,16.3-15.8c11.9,1,23.7,0.5,36,0.5
		c0-18.8,0-35.1,0-53.8c-17.8,0-34.6,0-53.3,0c0-18.8,0-35.1,0-51.4c-16.8-0.5-33.6-1.5-52.3-2.5
		C1186.9,1630.7,1186.9,1543.3,1186.9,1454.9z M866.9,1401.1c-18.8-1-36-2-53.3-3c0-34.1,0-68.1,0-104.2c16.3,0,30.6-0.5,44.4,0.5
		c3,0.5,7.9,5.9,7.9,9.4C866.9,1335.4,866.9,1366.5,866.9,1401.1z M814.1,1666.2c0-16.8,0-33.6,0-50.4c17.8,0,35.1,0,52.8,0
		c0,16.3,0,32.6,0,50.4C849.1,1666.2,832.8,1666.2,814.1,1666.2z M1079.8,1659.3c0,2.5-4.9,7.4-7.9,7.4c-14.3,0.5-28.1,0.5-45.4,0.5
		c0-17.8,0-34.1,0-50.4c17.3-1.5,34.1-2.5,54.3-4.4C1080.2,1630.2,1080.7,1645,1079.8,1659.3z M1081.2,1722c16.8,0,33.1,0,50.4,0
		c0,18.3,0,36.5,0,54.8c-16.8-1.5-33.1-3-50.4-4.4C1081.2,1755.6,1081.2,1739.3,1081.2,1722z M1185.9,1828.2c-17.8,0-35.1,0-52.3,0
		c-0.5-16.8-1-34.1-1.5-51.4c17.8-1.5,35.1-2.5,54.3-4C1185.9,1792.7,1185.9,1809,1185.9,1828.2z"/>
	<path fill="#FFFFFF" d="M654.1,1614.4c0-18.3,0-34.6,0-52.8c-53.3,0-105.7,0-160.5,0c0-12.8-1-24.2,0.5-35.6
		c2-16.3-4.9-19.3-19.8-18.8c-57.8,0.5-115.6,0.5-172.8,0.5c-5.9,0-11.9,0-19.8,0c0-17.8,0-34.6,0-53.3c34.6,0,68.6,0,103.7,0
		c0-18.3,0-34.6,0-52.8c-16.8,0-33.1,0-51.9,0c0-16.8-0.5-31.1,0.5-45.9c0-2.5,4.9-7.4,7.9-7.4c32.1-0.5,63.7-0.5,97.8-0.5
		c0,36,0,70.1,0,105.7c18.8,0,35.1,0,54.3,0c0-17.3,0-33.6,0-49.4c3-1.5,4-2.5,4.9-2.5c47.4-5.4,47.4-5.4,48.4,40.5
		c0,3.5,0.5,6.4,1,10.9c16.8,0,34.1,0,52.3,0c0-17.8,0-34.1,0-51.4c19.3-1,36.5-1.5,53.8-2.5c0-70.1,0-140.2,0-212.3
		c-19.8,0-36,0-52.3,0c-1,17.3-1.5,34.6-2.5,53.3c-52.8,0-104.2,0-160,0c1.5,18.3,2.5,34.6,3.5,51.4c-10.9,0.5-21.7,2-32.6,2
		c-42.5,0.5-84.9,0-130.4,0c0-15.8-0.5-31.1,0.5-45.4c0.5-3,8.4-7.4,12.8-7.4c25.2-0.5,49.9-0.5,75.1-0.5c5.4,0,10.9,0,18.3,0
		c0-15.8,0.5-30.1-0.5-44.4c-0.5-3.5-6.4-8.4-9.9-8.9c-8.9-1.5-17.8-1.5-26.7-0.5c-13.8,1.5-17.3-4.4-16.3-16.8
		c1-11.4,0.5-22.7,0.5-36c18.8,0,35.1,0,52.3,0c1.5-18.8,2.5-36,3.5-53.3c16.3,0,32.6,0,51.4,0c0,36,0,70.6,0,106.7
		c14.8,0,27.7-0.5,40,0.5c10.9,0.5,13.3-4.4,12.8-13.8c-0.5-12.8,0-25.2,0-40c19.8,0,37,0,54.3,0c0,17.3,0,34.6,0,52.8
		c18.8,0,36,0,53.3,0c0-17.8,0-35.1,0-52.8c-17.8,0-35.1-0.5-52.8-0.5c-1-17.3-1.5-34.6-2.5-52.8c-14.3,0-27.2-0.5-40,0
		c-9.9,0.5-12.8-3.5-12.3-12.8c0.5-12.8,0-26.2,0-41.5c-37.5,0-73.1,0-108.1,0c0-16.8,0-33.6,0-52.8c-35.1,0-70.6,0-106.7,0
		c0.5,67.7,0.5,134.8,1,202c0,8.9-4,11.4-11.9,11.4c-14.3-0.5-28.6,0-42.5,0c0.5,12.8,0.5,26.2,1.5,39c0.5,10.9-2.5,14.8-13.8,14.3
		c-31.1-0.5-62.7-0.5-93.8-0.5c0,88.9,0,177.3,0,267.7c37.5,0,71.6,0,108.1,0c0,18.3,0,35.1,0,53.3c71.6,0,141.2,0,213.3,0
		c0,18.3,0,35.1,0,52.8c7.9,0,13.8,0,18.8,0c41.5,0,83,0.5,124.4-0.5c11.9-0.5,17.3,2.5,16.3,15.8c-1,11.9-0.5,23.7-0.5,39
		c37,0,72.1,0,107.7,0c0-17.8,0-35.1,0-54.3C688.6,1614.4,672.3,1614.4,654.1,1614.4z M443.2,1291.9c12.8,0.5,26.2,1.5,39,2
		c35.1,0.5,69.6,0.5,104.2,0c9.9,0,13.3,2.5,13.8,13.3c1.5,40.5,1.5,40.5-39,40.5c-39,0-78.5,0-122,0
		C440.2,1328,441.7,1309.7,443.2,1291.9z M334.6,1027.2c16.8,0,33.1,0,49.9,0c1,17.8,2.5,35.1,3.5,52.3c-17.3,0-34.6,0-53.3,0
		C334.6,1062.3,334.6,1046,334.6,1027.2z M174.1,1300.8c0-2.5,4.9-5.9,7.4-6.4c14.3-0.5,28.6-0.5,44-0.5c0,18.3,0,34.6,0,52.3
		c-17.3,0-33.1,0-51.9,0C173.1,1330.9,173.1,1315.6,174.1,1300.8z M278.8,1453.9c-33.1,0-65.7,0-97.8-0.5c-2.5,0-5.4-4.4-7.4-6.9
		c-1-1-0.5-3.5-0.5-4.9c-2.5-41.5-2.5-41.5,38-41.5c21.7,0,44.4,0,67.2,0C278.8,1418.8,278.8,1435.1,278.8,1453.9z"/>
	<path fill="#FFFFFF" d="M1827.4,1560.6c-18.8,0-35.1,0-52.3,0c0-19.8,0-37,0-54.8c-53.3,0-106.2,0-159.5,0c0-18.8,0-36,0-53.3
		c-17.8,0-35.1,0-53.3,0c0-16.8,0-33.1,0-50.9c17.8-1,35.6-1.5,53.3-2.5c0-17.8,0-35.1,0-52.8c-72.1,0-144.2,0-216.3,0
		c0,35.1,0,70.1,0,107.7c19.8,0,36,0,54.8,0c0,54.3,0,106.2,0,160.5c18.3,0,35.1,0,53.3,0c0,12.8-1,23.7,0.5,34.1
		c1.5,15.3-4,19.8-19.3,19.8c-29.6-0.5-59.3,0.5-88.9,1.5c0,17.8,0,35.1,0,52.3c17.3,0,35.1,0,54.3,0c0,14.8,0.5,29.1-0.5,43
		c-0.5,3.5-7.4,8.9-11.4,8.9c-13.8,1.5-28.1,1.5-42.5,1.5c0,16.8,0,33.6,0,52.3c-17.8,0-34.6,0-51.4,0c-1,19.3-1.5,36-2.5,52.8
		c35.6,0,71.1,0,108.6,0c0-19.3,0-35.6,0-53.3c35.6,0,69.6,0,105.7,0c0,19.8,0,35.6,0,53.3c-18.3,0-34.6,0-52.8,0
		c0,18.3,0,34.6,0,52.8c-18.3,0-34.6,0-52.3,0c0,18.8,0,35.6,0,52.3c70.6,0,140.2,0,210.9,0c0-35.6,0-69.6,0-106.7
		c-17.8,0-34.1,0-53.3,0c1.5-17.8,3-34.1,4.4-50.4c-17.8-1.5-36-2.5-56.3-3.5c0-18.3,0-35.1,0-51.4c18.8,0,35.1,0,50.9,0
		c1.5,18.8,3.5,37,5.4,54.8c5.4-1,11.9-2.5,17.3-2.5c28.1-0.5,55.8,0,86.4,0c0-18.8,0-35.1,0-53.3c12.8,0,23.2-1,33.6,0.5
		c16.8,2,21.7-4.9,19.8-20.7c-1-10.4-0.5-20.7-0.5-31.6c19.3,0,36.5,0,53.8,0c0-17.8,0-35.6,0-55.3c18.3,0,35.1,0,53.3,0
		c0-18.3,0-34.6,0-50.9c-17.3-1-34.6-2-53.8-3C1827.4,1595.6,1827.4,1579.3,1827.4,1560.6z M1705.4,1721.1
		c-43.5-0.5-87.4-0.5-130.9-0.5c-3.5,0-7.4-0.5-12.8-1c0-53.3,0-105.7,0-158.5c52.3,0,104.2,0,158,0c0.5,4.4,1.5,9.4,1.5,13.8
		c0,43.5-0.5,85.9,0.5,129.4C1721.7,1717.6,1717.8,1721.6,1705.4,1721.1z"/>
	<path fill="#FFFFFF" d="M386.4,973.4c71.6,0,141.2,0,214.8,0c0,54.3,0,106.7,0,159.5c16.8,0,33.6,0,52.3,0c0-18.3,0-34.6,0-52.8
		c29.1,0,55.3,0,84.4,0c0-8.9,0-14.8,0-21.7c0-29.1,0-29.1-28.1-32.6c-1,0-1.5-1.5-2-1.5c0-16.8,0-33.1,0-45.9
		c8.9-11.9,30.1,6.4,30.1-17.8c0-12.8,1.5-26.2-2.5-37c-2-4.4-17.8-3.5-29.1-5.4c0-16.8,0-33.1,0-49.9c-18.8,0-35.1,0-54.3,0
		c0,17.8,0,34.1,0,50.4c-18.3,0-34.6,0-52.8,0c0-17.8,0-34.1,0-52.3c-18.3,0-34.6,0-51.4,0c0-71.6,0-142.2,0-213.8
		c17.8,0,34.1,0,52.3,0c0-17.8,0-34.6,0-53.3c17.8,0,34.6,0,51.4,0c1.5,21.2,2.5,38.5,4,56.3c16.8-1.5,33.1-2.5,49.4-4.4
		c1.5-17.3,2.5-33.1,3.5-48.4c-17.8-1.5-35.1-2.5-55.8-4c0-14.8-0.5-27.7,0-40c0.5-9.9-3.5-12.8-12.8-12.3c-12.8,0.5-26.2,0-39.5,0
		c0-18.8,0-35.1,0-53.3c17.8,0,34.1,0,51.4,0c0-18.3,0-34.6,0-51.4c-17.8,0-34.1,0-52.8,0c0,17.8,0,34.1,0,52.3
		c-18.3,0-34.6,0-51.9,0c-0.5,7.9-1,13.8-1,19.8c0,24.2-0.5,48.9,0,73.1c0.5,10.4-3.5,13.8-13.8,13.3c-12.8-0.5-25.2,0-39,0
		c-0.5,7.4-1,13.8-1,19.8c0,24.2,0.5,48.9-0.5,73.1c0,4.4-4.4,12.8-7.4,12.8c-14.8,1.5-29.1,0.5-45.9,0.5c0-18.8,0-35.1,0-53.3
		c-31.1,0-60.7-0.5-89.9,0.5c-12.3,0.5-18.3-2.5-16.8-16.8c1-11.9-1-23.7-1.5-36c-34.6,0-68.6,0-104.7,0c0,14.3,0.5,27.2,0,39.5
		c-0.5,9.4,3,12.8,12.3,12.8c12.8-0.5,26.2,0,41,0c0,21.7,0,41,0,59.8c-0.5,68.6-0.5,138.3-1,206.9c35.1,0,70.1,0,107.7,0
		C386.4,938.3,386.4,955.1,386.4,973.4z M333.1,707.7c36,0,69.6,0,105.7,0c0,17.3,0,33.6,0,52.3c-33.1,0-65.7,0.5-97.8-0.5
		c-2.5,0-7.4-4.9-7.4-7.9C333.1,737.4,333.1,723,333.1,707.7z M334.1,867.2c0-18.8,0-35.1,0-52.8c35.1,0,69.1,0,104.2,0
		c0,35.1,0,69.1,0,104.2c-16.8,0-33.1,0-51.9,0c0-16.3,0-33.1,0-51.9C368.6,867.2,352.3,867.2,334.1,867.2z"/>
	<path fill="#FFFFFF" d="M384.9,14.4c-124.9,0-247.9,0-370.9,0c0,124.4,0,246.9,0,370.4c124.4,0,247.9,0,370.9,0
		C384.9,260.8,384.9,137.4,384.9,14.4z M332.1,331.4c-87.9,0-175.8,0-264.7,0c-0.5-4.4-1-9.4-1-14.3c0-77.5,0.5-155.1-0.5-232.6
		c0-13.8,3-18.8,18.3-18.8c77.5,0.5,155.1,0.5,232.6,0.5c4.9,0,9.9,0.5,15.8,1C332.1,155.6,332.1,243,332.1,331.4z"/>
	<path fill="#FFFFFF" d="M1987.9,12.4c0,0-5.4,0-20.7,0c-110.6,0.5-220.7,0.5-330.9,0.5c-6.4,0-12.8,0-20.7,0
		c0,125.9,0,248.9,0,372.3c124.4,0,246.9,0,372.3,0c0-7.4,0-13.8,0-20.7C1987.4,253.9,1987.4,123.5,1987.9,12.4z M1933.1,331.9
		c-4.4,0.5-8.9,1.5-13.3,1.5c-79,0-158.5,0-237.5,0.5c-9.9,0-15.3-1-14.8-13.3c0.5-81,0.5-161.5,0.5-242.5c0-2.5,0.5-5.4,1-10.4
		c88.4,0,175.8,0,264.2,0C1933.1,155.6,1933.1,243,1933.1,331.9z"/>
	<path fill="#FFFFFF" d="M29.4,1613.4c-13.8,0-16.3,4.9-16.3,17.3c0.5,113.6,0,242,0,355.6c0,0,0,0,1.5,0c124.4,0,246.9,0,371.4,0
		c0-124,0-247.4,0-371.4c-5.4-0.5-10.4-1.5-15.3-1.5C256.5,1613.9,142.5,1614.4,29.4,1613.4z M332.1,1933.4c-88.4,0-175.8,0-263.7,0
		c-0.5-3.5-1.5-7.4-1.5-10.9c0-80,0-159.5-0.5-239c0-10.9,2-15.8,14.3-15.8c80,0.5,160.5,0.5,241,0.5c3.5,0,6.4,0.5,10.9,1.5
		C332.1,1757.1,332.1,1844.5,332.1,1933.4z"/>
	<path fill="#FFFFFF" d="M1186.9,707.7c48.9-0.5,97.8-0.5,147.2-0.5c3.5,0,6.9,1.5,10.9,2.5c1.5-18.3,2.5-36.5,3.5-55.3
		c-33.6,0-63.7,0.5-93.3-0.5c-4.9,0-13.3-5.4-13.8-8.9c-1.5-13.8-0.5-28.1-0.5-44.4c18.8,0,35.1,0,52.3,0c0-18.8,0-35.1,0-53.3
		c-12.3,0-23.7-0.5-34.1,0.5c-13.8,1.5-17.8-3-17.8-17.3c0.5-76.5,0.5-152.6,0.5-229.1c0-6.4-0.5-12.8-1-19.3c-18.3,0-34.6,0-52.3,0
		c0,35.1,0,69.6,0,106.2c-18.8,0-35.1,0-52.3,0c0,55.3,0,108.6,0,161.5c17.3-0.5,34.1-1.5,52.3-2.5
		C1186.9,602,1186.9,654.9,1186.9,707.7z"/>
	<path fill="#FFFFFF" d="M815.6,603c-0.5,16.8-0.5,34.1-1,51.4c16.8,0,33.6,0,53.3,0c0,18.8,0,36,0,53.3c17.3,0,34.1,0,52.8,0
		c0,8.9-1,15.8,0.5,21.7c0.5,3.5,5.4,8.4,8.9,8.9c13.8,1,28.1,0.5,44.4,0.5c0-8.9-1.5-15.8,0.5-21.7c1-4,5.9-9.4,9.4-9.4
		c13.8-0.5,28.1,0.5,42.5,1c0.5-17.8,1.5-35.1,1.5-52.3c-21.2-0.5-42.5-2-63.7-2.5c-13.8-0.5-28.1,0-43.5,0c0-8.9,0-14.8,0-20.7
		c0-40-0.5-79.5,0.5-119.5c0.5-16.3-4.9-21.7-20.7-19.8c-10.4,1-20.7,0.5-33.1,0.5c0-18.8,0-35.6,0-51.4c-37,0-71.1,0-105.7,0
		c-0.5,29.1-1,58.3-0.5,87.4c0.5,13.8-4.4,18.8-17.8,17.8c-11.4-1-22.7-0.5-36.5-0.5c1.5,20.2,2.5,38,3.5,55.8
		c18.8-1,38-2.5,57.3-2.5C783,600.1,799.3,602,815.6,603z M858.5,546.7c3,0,7.4,4.9,7.4,7.4c0.5,14.3,0.5,28.1,0.5,43.5
		c-17.8,1.5-34.6,3-50.9,4.4c-1-17.8-2.5-35.6-3.5-55.8C829.4,546.7,844.2,546.2,858.5,546.7z"/>
	<path fill="#FFFFFF" d="M1026.4,12.9c-14.8,0-28.1,0.5-41.5,0c-8.9-0.5-11.9,3.5-11.9,11.9c0.5,13.3,0,26.2,0,41.5
		c-13.8,0-26.2,0.5-38-0.5c-11.4-0.5-16.3,2.5-15.8,14.8c1,12.8,0.5,25.2,0.5,38c16.8,0,33.6,0,51.4,0c0,18.8,0,35.1,0,53.3
		c-17.3,0-34.1,0-51.4,0c0,17.3,0,34.6,0,54.3c17.8,0,34.6,0,51.9,0c0,54.3,0,106.2,0,160.5c-17.8-1.5-34.1-2.5-50.4-4
		c0,18.3,0,36.5,0,58.3c18.8-2,36-4,53.8-5.9c-1-15.8-1.5-31.1-2.5-49.9c19.3,0,36,0,54.8,0c0-54.3,0-106.2,0-159.5
		c18.3,0,34.6,0,52.8,0c0-14.8,0.5-27.2,0-40c-0.5-10.4,3.5-13.8,13.8-13.3c12.8,0.5,26.2,0,41,0c-1-20.7-2-38-3-55.3
		c-34.6,0-68.6,0-105.2,0C1026.4,83,1026.4,48.5,1026.4,12.9z"/>
	<path fill="#FFFFFF" d="M1986.4,1453.4c0-54.3,0-106.2,0-158.5c-17.3,0-33.6,0-52.3,0c0,30.6-0.5,60.7,0.5,90.4
		c0.5,12.8-4,15.8-15.8,15.8c-58.3-0.5-116-0.5-174.3-0.5c-6.9,0-13.8,0-21.7,0c0,18.8,0,35.6,0,53.3c13.8,0,27.2,0.5,39.5,0
		c9.4-0.5,12.8,3.5,12.8,12.8c-0.5,12.8,0.5,26.2,1,39c26.2,0.5,52.3,1,79,1.5c7.9,0,16.3,0,27.7,0c0,37,0,73.1,0,108.6
		c17.3,0.5,35.1,0.5,52.3,0.5c0-53.3,0-106.7,0-162.5C1952.8,1453.4,1969.6,1453.4,1986.4,1453.4z"/>
	<path fill="#FFFFFF" d="M812.6,378.8c0.5-14.8,0.5-29.1,0.5-45.9c-18.8,0-35.1,0-53.3,0c0-7.4,0-13.8,0-19.3
		c0-25.2-0.5-49.9,0-74.6c0-9.4-3-12.8-12.3-12.8c-62.7,0.5-125.9,0-189.1,0c-7.9,0-12.8,2-12.3,10.9c0.5,13.8,1,27.2,1.5,41
		c12.8,0.5,26.2,1.5,38.5,1.5c9.9-0.5,13.8,3,13.3,12.8c-0.5,12.8,0.5,26.2,1,39c16.8,1,33.6,2,52.3,3c0,17.3,0,33.6,0,50.4
		c18.8,0,35.1,0,51.9,0c0-17.8,0-34.1,0-52.3c-17.8,0-34.1,0-51.4,0c0-18.3,0-34.6,0-53.3c13.8,0,27.2,0.5,40,0
		c9.9-0.5,12.8,3.5,12.3,12.8c-0.5,12.8,0,26.2,0,41.5c18.8,0,35.1,0,53.8,0c0,17.8,0,34.1,0,50.4c15.3,0.5,30.1,1.5,45.4,1.5
		C808.6,385.8,812.6,381.3,812.6,378.8z"/>
	<path fill="#FFFFFF" d="M1720.7,441.1c0,50.4,0,100.2,0.5,150.1c0,3,5.4,8.9,8.9,8.9c32.1,0.5,63.7,0.5,98.3,0.5
		c0-18.8,0-35.6,0-51.9c19.3,0,36,0,53.3,0c0-35.6,0-71.1,0-107.2c-19.3,0-35.6,0-53.8,0c0,17.8,0,34.1,0,50.9
		c-18.8,0-35.1,0-53.8,0c0-17.8,0-34.1,0-51.4C1755.3,441.1,1739,441.1,1720.7,441.1z"/>
	<path fill="#FFFFFF" d="M707.4,65.8c-17.3,0-34.6,0-54.3,0c0,19.3,0,36,0,52.8c-18.8,0-35.1,0-52.8,0c0-12.8-0.5-23.7,0.5-35.1
		c1-12.8-2.5-17.8-16.3-17.3c-11.4,0.5-22.7-1-34.1-1.5c-1.5,17.8-3.5,35.6-4.9,55.8c-34.6,0-69.1,0-103.2,0c0,18.8,0,35.1,0,51.9
		c88.4,0,175.8,0,266.2,0C707.4,136.4,707.4,100.8,707.4,65.8z"/>
	<path fill="#FFFFFF" d="M1986.4,651.9c0-71.1,0-140.7,0-210.4c-17.8,0-34.6,0-52.8,0c0,35.6,0,69.6,0,104.2c-18.3,1-35.1,2-51.9,3
		c0,34.1,0,68.6,0,103.2C1918.3,651.9,1952.3,651.9,1986.4,651.9z"/>
	<path fill="#FFFFFF" d="M25.9,920.1c-7.4,0-12.8,0.5-12.8,10.4c0.5,29.1,0,57.8,0.5,86.4c0,3.5,4,9.4,5.9,9.9
		c33.1,0.5,65.7,0.5,101.2,0.5c0-18.8,0-35.1,0-53.3c18.3,0,34.6,0,51.4,0c0-36.5,0-70.6,0-107.7c-18.8,1-36.5,2-53.8,3
		c0.5,16.8,1.5,33.1,2.5,51.4C86.7,920.1,56,920.6,25.9,920.1z"/>
	<path fill="#FFFFFF" d="M1347.4,120.1c18.8,0,35.1,0,53.3,0c0,18.3,0,34.6,0,51.4c18.3,0,34.6,0,51.4,0c0-53.3,0-105.7,0-157.5
		c-53.3,0-105.2,0-157.5,0c0,17.8,0,34.1,0,52.3c17.3,0,34.1,0,52.3,0C1347.4,85,1347.4,101.8,1347.4,120.1z"/>
	<path fill="#FFFFFF" d="M1400.7,1507.2c-18.8,0-35.1,0-53.8,0c0-18.8,0-35.1,0-52.3c-36.5,0-70.6,0-105.2,0c0,17.8,0,34.1,0,52.3
		c35.6,0,69.6,0,104.7,0c0,55.3,0,108.1,0,161c17.8,0,35.1,0,52.3,0c0.5-45.4,1-91.4,1.5-136.8
		C1400.7,1524,1400.7,1516.6,1400.7,1507.2z"/>
	<path fill="#FFFFFF" d="M13.6,1559.6c17.8,0,34.1,0,51.4,0c0-88.4,0-175.8,0-265.2c-12.8,0-25.2,0.5-37-0.5
		c-12.3-1-15.8,3.5-15.8,15.8c0.5,79,0.5,158.5,0.5,237.5C13.1,1551.2,13.6,1554.6,13.6,1559.6z"/>
	<path fill="#FFFFFF" d="M66.4,1186.2c0-14.8,0.5-27.2-0.5-40c-0.5-10.9,4.4-13.3,13.8-12.8c12.8,0.5,25.2,0,40,0
		c0-14.8-0.5-28.1,0-41.5c0.5-9.9-4.4-12.3-12.8-11.9c-27.2,0.5-54.3,0.5-81,0c-9.4,0-12.8,3-12.8,12.3c0.5,45.4,0.5,90.9,0,135.8
		c0,8.4,2.5,11.9,11.4,11.9c31.1-0.5,62.7-0.5,94.3-1c0-17.3,0-34.1,0-53.3C100,1186.2,84.2,1186.2,66.4,1186.2z"/>
	<path fill="#FFFFFF" d="M494.6,331.9c-17.8,0.5-35.6,1.5-53.3,2.5c0,36,0,69.6,0,105.7c17.8,0,34.1,0,51.9,0c0,18.3,0,34.6,0,51.9
		c18.8,0,35.1,0,54.3,0c0-36.5,0-71.6,0-106.7c-17.3,0-34.6,0-53.3,0C494.6,367.5,494.6,349.2,494.6,331.9z"/>
	<path fill="#FFFFFF" d="M1293.6,1666.2c0-35.1,0-69.1,0-105.7c-13.8,0-26.2,1-38-0.5c-12.8-1-15.8,3.5-15.8,15.8
		c0.5,48.4,0,97.3-0.5,145.7c35.1,0,70.6,0,106.2,0c0-17.8,0-35.1,0-52.8C1329.1,1668.2,1312.3,1667.2,1293.6,1666.2z"/>
	<path fill="#FFFFFF" d="M1347.4,300.3c0-6.4,0.5-12.8,1-20.7c17.8,0,34.1,0,51.4,0c0-18.3,0-34.6,0-53.8c-18.3,0-36,0-53.3,0
		c0,17.8,0,35.6,0,54.3c-14.8,0-28.1-0.5-41.5,0.5c-4,0.5-10.4,6.4-10.4,9.9c-0.5,48.9-0.5,98.3-0.5,147.7
		c17.8,1.5,34.1,3.5,50.9,4.9c1-6.4,2.5-12.8,2.5-19.3C1347.4,382.3,1346.9,341.3,1347.4,300.3z"/>
	<path fill="#FFFFFF" d="M1225.4,66.2c-12.3,0.5-24.7,0-39,0c0-19.3,0-35.6,0-53.3c-12.3,0-22.7,0.5-33.1-0.5
		c-14.8-1.5-20.2,3-19.8,18.8c1,28.6-0.5,56.8-1.5,85.4c17.8,1.5,35.6,2.5,55.3,4c0,17.3,0,33.6,0,50.4c18.8,0,35.6,0,52.3,0
		c0.5-30.1,0-60.7,1-90.9C1241.2,68.7,1236.3,65.8,1225.4,66.2z"/>
	<path fill="#FFFFFF" d="M813.6,119.1c0-14.8-0.5-27.7,0-40c0.5-9.4-3-12.8-12.3-12.8c-12.8,0-26.2-1-39-1.5c0,35.6,0,71.1,0,107.2
		c52.3,0,105.2,0,158,0c0-17.8,0-35.1,0-52.3C885.2,119.1,849.6,119.1,813.6,119.1z"/>
	<path fill="#FFFFFF" d="M1829.9,1883c16.3-1,32.1-2.5,50.9-3.5c0-35.1,0-69.1,0-105.2c15.8,0,29.1,0.5,42-0.5
		c4-0.5,10.4-4.9,10.9-8.4c1-14.3,0.5-28.1,0.5-43c-36.5,0-70.6,0-105.7,0c-0.5,50.9-0.5,102.2-0.5,153.1
		C1827.9,1878.1,1829.4,1880.6,1829.9,1883z"/>
	<path fill="#FFFFFF" d="M30.4,867.2c29.1-0.5,58.3,1,86.9,1.5c0.5-18.3,0.5-36,1-54.3c-12.8-0.5-25.2-1-37.5-0.5
		c-10.9,0.5-14.8-3-14.3-13.8c0.5-12.8,0.5-25.2,0.5-38.5c-18.3,0-34.6,0-53.3,0c0,30.1,0.5,59.3-0.5,87.9
		C12.1,862.8,16,867.2,30.4,867.2z"/>
	<path fill="#FFFFFF" d="M384.9,492.9c0-18.8,0-35.1,0-51.4c-35.1,0-69.6,0-104.2,0c0,35.1,0,69.1,0,104.2c17.3,1.5,33.1,2.5,49.4,4
		c1.5-17.8,3-36,4.4-56.3C351.9,492.9,368.6,492.9,384.9,492.9z"/>
	<path fill="#FFFFFF" d="M707.9,1934.4c0,18.8,0,35.1,0,51.9c35.1,0,69.6,0,104.2,0c0-35.6,0-69.6,0-104.7c-17.8,0-34.1,0-50.9,0
		c0,16.8,0,33.6,0,52.8C741.5,1934.4,724.7,1934.4,707.9,1934.4z"/>
	<path fill="#FFFFFF" d="M1668.4,707.2c-0.5-38.5-1.5-77-1.5-115.6c-0.5-49.9,0-49.9-50.4-44.4c-0.5,0-1,0.5-1.5,0.5
		c0,52.3,0,104.2,0,159.5C1633.8,707.2,1651.1,707.2,1668.4,707.2z"/>
	<path fill="#FFFFFF" d="M1935.6,1827.2c0,54.3,0,106.7,0,158.5c17.8,0,34.1,0,50.9,0c0-52.8,0-104.7,0-157.5
		c-4-0.5-6.9-1.5-10.4-1.5C1963.2,1827.2,1949.9,1827.2,1935.6,1827.2z"/>
	<path fill="#FFFFFF" d="M1777.5,1244.5c-7.4,7.4-3,27.2-3.5,41.5c-0.5,20.2,0,40.5,0,59.8c37,0,71.1,0,106.7,0
		c0-13.8-0.5-26.7,0-39c0.5-10.9-4.4-13.3-13.8-12.8c-12.8,0.5-25.2,0-39,0c0-19.3,0-37,0-54.3c-3.5,0.5-6.4,0.5-9.9,0.5
		C1804.2,1241.1,1784.4,1236.6,1777.5,1244.5z"/>
	<path fill="#FFFFFF" d="M21.5,706.2c14.8,0.5,29.1,0.5,45.9,0.5c0-18.8,0-35.1,0-54.3c17.8,1.5,34.1,2.5,50.4,3.5
		c1-17.8,2-35.6,3.5-55.3c-35.1,0-67.7-0.5-100.2,0.5c-2.5,0-7.4,5.4-7.4,8.4c-0.5,30.1-0.5,59.8,0,89.4
		C13.6,700.8,18,705.8,21.5,706.2z"/>
	<path fill="#FFFFFF" d="M1722.2,1880.6c0,19.3,0,35.6,0,53.3c17.8,0,34.1,0,52.3,0c0,18.8,0,35.1,0,51.9c18.8,0,35.1,0,52.3,0
		c0-12.8-0.5-24.2,0-36c0.5-22.2,1.5-44.4,2.5-67.2c-22.7-1-44.9-1.5-67.2-2.5C1748.9,1880.6,1735.6,1880.6,1722.2,1880.6z"/>
	<path fill="#FFFFFF" d="M492.1,493.9c-17.8,0-34.1,0-51.4,0c0,35.1,0,68.6,0,104.2c17.8,0,34.6,0,51.4,0
		C492.1,563,492.1,529,492.1,493.9z"/>
	<path fill="#FFFFFF" d="M1080.2,491.9c0-13.8-0.5-26.7,0.5-39c0.5-10.4-4-13.3-13.8-13.3c-26.7,0.5-52.8,0.5-79.5-0.5
		c-4,0-7.9-2.5-11.9-4c-1,18.8-1.5,37-2.5,56.3C1010.1,491.9,1044.2,491.9,1080.2,491.9z"/>
	<path fill="#FFFFFF" d="M1239.8,171.9c0,17.3,0,35.1,0,53.3c37,0,71.1,0,105.7,0c0-16.8,0-33.6,0-53.3
		C1309.9,171.9,1274.8,171.9,1239.8,171.9z"/>
	<path fill="#FFFFFF" d="M866.4,291.4c-0.5-4-4-10.9-6.4-10.9c-14.8-1-30.1-0.5-45.4-0.5c0,19.3,0,35.6,0,53.3c17.8,0,34.1,0,52.3,0
		c0,17.8,0,34.1,0,54.3c19.8-1.5,37-3,54.3-4.4c-0.5-15.8-1.5-32.1-2.5-50.4c-17.8,0-34.1,0-52.3,0
		C866.9,317.6,867.4,304.3,866.4,291.4z"/>
	<path fill="#FFFFFF" d="M1986.4,973.9c-14.8,0-29.1-0.5-43.5,0.5c-3,0.5-8.4,5.4-8.4,8.9c-0.5,32.6,0.5,64.7,0.5,97.3
		c16.8,0,33.6,0,51.4,0C1986.4,1044,1986.4,1009.9,1986.4,973.9z"/>
	<path fill="#FFFFFF" d="M921.7,1935.4c34.1,0,68.6,0,105.2,0c0-19.8,0-37,0-53.3c-35.1,0-70.6,0-106.2,0
		C920.7,1899.8,921.2,1917.6,921.7,1935.4z"/>
	<path fill="#FFFFFF" d="M441.2,13.9c0,17.8,0,34.1,0,49.4c37,0,72.6,0,108.1,0c-1.5-16.8-3-33.1-4.4-49.4
		C509.9,13.9,475.8,13.9,441.2,13.9z"/>
	<path fill="#FFFFFF" d="M545.9,1881.6c-17.8,0-34.1,0-51.4,0c0,18.3,0,34.6,0,51.9c17.3,0,33.6,0,52.3,0c0-17.3,0-34.1,0-52.8
		c18.8,0,35.1,0,51.4,0c1.5-17.8,3-34.1,4.4-50.4c-18.3-1-36.5-2-56.8-3.5C545.9,1847,545.9,1863.3,545.9,1881.6z"/>
	<path fill="#FFFFFF" d="M1089.6,385.8c13.8,1,28.1,0.5,43.5,0.5c0-36,0-69.6,0-105.7c-17.8,0-34.1,0-52.3,0
		c0,33.1-0.5,64.7,0.5,96.3C1080.7,380.3,1086.2,385.8,1089.6,385.8z"/>
	<path fill="#FFFFFF" d="M1400.7,375.9c0,3.5,5.4,9.9,8.9,10.4c13.8,1,28.1,0.5,43.5,0.5c0-36,0-70.6,0-105.7c-17.3,0-33.6,0-52.3,0
		C1400.7,313.7,1400.2,344.8,1400.7,375.9z"/>
	<path fill="#FFFFFF" d="M545.9,1668.7c-35.6,0-69.6,0-104.2,0c0,17.8,0,34.1,0,50.4c35.6,0,69.6,0,104.2,0
		C545.9,1701.8,545.9,1685.5,545.9,1668.7z"/>
	<path fill="#FFFFFF" d="M1617,496.4c-18.3-1.5-36-2.5-56.3-4c0,12.3,0.5,20.7,0,29.6c-0.5,8.9-1,17.3-1.5,26.2
		c18.8,0,37.5,0,56.3,0C1616,530.4,1616.5,513.2,1617,496.4z"/>
	<path fill="#FFFFFF" d="M707.4,387.7c0,16.8,0,33.6,0,50.4c18.3,1,35.6,2,52.8,3.5c0-18.8,0-38-0.5-57.3
		C743,385.8,725.7,386.7,707.4,387.7z"/>
	<path fill="#FFFFFF" d="M1559.8,67.2c-17.3,0-33.6,0-51.4,0c0,17.3,0,34.1,0,51.9c17.3,0,33.6,0,51.4,0
		C1559.8,101.8,1559.8,84.5,1559.8,67.2z"/>
	<path fill="#FFFFFF" d="M1667.4,1452.4c0-13.8-0.5-27.2,0-40c0.5-9.9-4.4-11.9-12.8-11.9c-12.8,0.5-26.2-0.5-39-1
		c0,17.8,0,35.1,0,52.8C1632.3,1452.4,1649.1,1452.4,1667.4,1452.4z"/>
	<path fill="#FFFFFF" d="M1626.4,1293.4c-8.9-0.5-13.3,2.5-12.8,11.9c1,13.3,1.5,27.2,2,40c16.8,0,33.1,0,52.8,0
		c0-18.3,0-35.6,0-52.8C1654.6,1293.4,1640.7,1293.9,1626.4,1293.4z"/>
	<path fill="#FFFFFF" d="M1666.4,441.1c-17.8,0-34.1,0-53.3,0c1.5,19.3,3,37,4.4,54.8c15.8-1.5,32.1-3,48.9-4.4
		C1666.4,474.6,1666.4,457.8,1666.4,441.1z"/>
	<path fill="#FFFFFF" d="M441.2,228.2c0,17.8,0,34.1,0,52.8c19.3-1.5,37-2.5,54.8-4c-1.5-16.8-3.5-33.1-4.4-49.4
		C473.3,228.2,457.5,228.2,441.2,228.2z"/>
	<path fill="#FFFFFF" d="M385.4,545.8c-18.8,1.5-37,2.5-54.3,3.5c0.5,17.3,0.5,34.1,1,51.4c17.8,0,36,0,53.8,0
		C385.4,581.3,385.4,565,385.4,545.8z"/>
	<path fill="#FFFFFF" d="M547.9,384.8c16.8,0.5,33.6,1.5,52.8,2.5c0-20.2,0-37.5,0-55.3c-17.8,0-35.1,0-52.8,0
		C547.9,349.2,547.9,367,547.9,384.8z"/>
	<path fill="#FFFFFF" d="M1934.6,1666.2c17.8,0,35.1,0,52.3,0c0-17.8,0-34.1,0-52.8c-17.8,1.5-35.1,2.5-52.3,3.5
		C1934.6,1632.7,1934.6,1649,1934.6,1666.2z"/>
	<path fill="#FFFFFF" d="M707.4,1452.9c0-18.8,0-36,0-53.3c-17.8,0-35.1,0-52.8,0c0,17.3,0,35.1,0,53.3
		C671.4,1452.9,688.1,1452.9,707.4,1452.9z"/>
	<path fill="#FFFFFF" d="M1080.7,602.5c-18.3,0.5-37,0.5-55.3,0.5c0.5,17.3,1.5,35.1,2.5,52.3c16.8-1,34.1-2.5,52.8-3.5
		C1080.7,634.6,1080.7,618.8,1080.7,602.5z"/>
	<path fill="#FFFFFF" d="M1133.6,548.7c-14.8-0.5-30.1-2-45.4-1.5c-2.5,0-7.4,6.9-7.4,10.9c-0.5,14.8,0,29.1,0.5,44
		c16.8-1,34.1-2.5,52.3-3.5C1133.6,581.3,1133.6,565,1133.6,548.7z"/>
	<path fill="#FFFFFF" d="M547.9,278.6c-17.3-0.5-34.1-1-51.4-1.5c-0.5,18.3-1,36-1.5,54.3c17.8,0,35.1,0,52.3,0
		C547.9,313.7,547.9,296.4,547.9,278.6z"/>
	<path fill="#FFFFFF" d="M161.2,812.9c4.4-0.5,10.9-5.4,11.4-8.9c1.5-13.8,0.5-28.1,0.5-43c-18.8,0-35.1,0-54.3,0
		c0,18.3,0,35.6,0,52.3C133.1,813.9,146.9,813.9,161.2,812.9z"/>
	<path fill="#FFFFFF" d="M1881.2,707.7c-18.8,0-35.6,0-52.3,0c0,18.3,0,35.6,0,52.3c17.8,0,35.1,0,52.3,0
		C1881.2,743.3,1881.2,726,1881.2,707.7z"/>
	<path fill="#FFFFFF" d="M868.4,1986.2c17.8,0,34.1,0,52.8,0c0-17.8,0-34.1,0-50.4c-17.8,0-35.6,0-52.8,0
		C868.4,1953.7,868.4,1969.9,868.4,1986.2z"/>
	<path fill="#FFFFFF" d="M1775.6,973.4c17.8,0,35.1,0,52.3,0c0-17.8,0-35.1,0-52.8c-17.8,0-35.1,0-52.8,0
		C1775.6,937.8,1775.6,955.6,1775.6,973.4z"/>
	<path fill="#FFFFFF" d="M1880.7,1026.7c0-13.8-0.5-26.2,0.5-38c0.5-11.4-2.5-16.3-14.8-15.3c-12.8,1-25.2,0.5-37.5,0.5
		c0,17.8,0,35.1,0,52.8C1845.7,1026.7,1862,1026.7,1880.7,1026.7z"/>
	<path fill="#FFFFFF" d="M707.9,760.6c0-17.3,0-34.1,0-52.8c-19.8,0-36,0-52.8,0c0.5,18.3,0.5,36,1,54.3
		C673.3,761.6,690.6,761.1,707.9,760.6z"/>
	<path fill="#FFFFFF" d="M1828.4,1239.1c16.8,0,33.6,0,53.3,0c0-17.8,0-35.1,0-52.3c-17.3,0-34.6,0-53.3,0
		C1828.4,1206,1828.4,1222.3,1828.4,1239.1z"/>
	<path fill="#FFFFFF" d="M760.7,654.9c0,16.8,0,33.1,0,52.3c17.8,0,35.6,0,52.8,0c0-17.8,0-35.1,0-52.3
		C796.3,654.9,779,654.9,760.7,654.9z"/>
	<path fill="#FFFFFF" d="M601.2,707.2c18.8,0,36,0,53.3,0c0.5-16.8,0.5-34.1,1.5-51.4c-18.3-1-36-2.5-54.3-3.5
		C601.2,672.2,601.2,688.5,601.2,707.2z"/>
	<path fill="#FFFFFF" d="M1986.4,1239.6c0-17.8,0-34.1,0-51.4c-17.8-0.5-34.1-1.5-50.4-2.5c0,17.8,0,35.6,0,53.3
		C1952.8,1239.6,1969.1,1239.6,1986.4,1239.6z"/>
	<path fill="#FFFFFF" d="M182,1134.4c-3.5,0.5-8.9,5.4-8.9,8.9c-1,14.3-0.5,28.6-0.5,44c18.8,0,35.1,0,51.4,0c0-17.3,0-34.1,0-52.8
		C209.6,1133.4,196.3,1133.4,182,1134.4z"/>
	<path fill="#FFFFFF" d="M495.1,1827.2c9.9,0,17.8,0,26.2,0c7.9,0,15.8,0,23.7,0c1.5-18.8,3-34.6,4.4-50.9c-18.3-1-36.5-2-54.3-3.5
		C495.1,1793.7,495.1,1809.9,495.1,1827.2z"/>
	<path fill="#FFFFFF" d="M1507.4,217.8c3,3,5.9,8.4,8.9,8.9c14.3,1,28.6,0.5,43,0.5c0-18.8,0-35.1,0-51.4
		c-46.9-9.9-54.8-3.5-52.3,39C1507.4,215.4,1506.9,216.9,1507.4,217.8z"/>
	<path fill="#FFFFFF" d="M1346.4,1722.5c0.5,13.3,1,27.2,1,40c-0.5,8.9,3.5,11.9,11.9,11.9c13.3,0,27.2,0.5,40,1
		c0-17.8,0-35.1,0-52.8C1381.5,1722.5,1363.7,1722.5,1346.4,1722.5z"/>
	<path fill="#FFFFFF" d="M127.7,705.8c14.8,1.5,29.1,0.5,44.4,0.5c0-18.8,0-35.1,0-54.3c-18.8,1.5-36.5,2.5-54.3,3.5
		c0.5,12.8,0.5,26.2,2.5,38.5C120.7,698.8,124.7,705.8,127.7,705.8z"/>
	<path fill="#FFFFFF" d="M759.8,25.3c-0.5-4.4-5.4-11.4-8.9-11.9c-13.8-1.5-28.1-0.5-43.5-0.5c0,18.8,0,35.6,0,52.3
		c17.8-0.5,36-0.5,53.8-1.5C761.2,51.4,761.2,38.1,759.8,25.3z"/>
	<path fill="#FFFFFF" d="M1773.6,698.8c1-14.8,0.5-29.1,0.5-44.4c-18.8,0-35.1,0-54.3,0c1.5,18.8,2.5,36.5,4,54.3
		c12.8-0.5,26.2-1,38.5-2.5C1766.7,705.8,1773.6,701.8,1773.6,698.8z"/>
	<path fill="#FFFFFF" d="M1719.3,1292.4c0-17.8,0-34.1,0-52.8c-17.8,0-34.1,0-50.4,0c0,17.8,0,35.1,0,52.8
		C1685.7,1292.4,1702.5,1292.4,1719.3,1292.4z"/>
	<path fill="#FFFFFF" d="M1295.1,1932.9c17.3,1,33.1,2,49.4,3c0.5-18.3,0.5-36,1-54.3c-16.8,0-33.1,0-50.4,0
		C1295.1,1899.8,1295.1,1916.1,1295.1,1932.9z"/>
	<path fill="#FFFFFF" d="M600.7,1986.7c17.8,0,34.1,0,51.4,0c0-17.8,0-34.1,0-50.9c-17.8,0-34.1,0-51.4,0
		C600.7,1952.7,600.7,1969,600.7,1986.7z"/>
	<path fill="#FFFFFF" d="M1019,546.7c-14.8-0.5-29.1-0.5-44.4-0.5c0,18.8,0,35.1,0,51.4c17.8,1.5,34.1,3,50.4,4.4
		c0.5-15.8,1.5-31.6,1.5-47.4C1026.9,552.2,1022,547.2,1019,546.7z"/>
	<path fill="#FFFFFF" d="M1344.9,1936.4c1.5,16.8,2.5,33.1,4,51.4c14.8,0,29.1,0.5,43.5-0.5c3,0,7.9-4.4,7.9-7.4
		c0.5-14.8,0.5-29.1,0.5-46.4C1380,1934.4,1362.7,1935.4,1344.9,1936.4z"/>
	<path fill="#FFFFFF" d="M1187.9,1354.6c-1.5,14.8-0.5,29.6-0.5,44.4c18.8,0,35.1,0,54.3,0c-1-18.8-2.5-37-3.5-54.8
		c-12.8,1-26.2,1-38.5,3C1194.8,1348.2,1187.9,1352.2,1187.9,1354.6z"/>
	<path fill="#FFFFFF" d="M180,545.3c12.8,5.4,30.1,1,45.4,1c0-18.8,0-34.6,0-53.3c-15.3,0-28.1-0.5-41.5,0.5
		c-4,0.5-10.9,6.9-10.4,9.9C176,518.1,163.2,537.8,180,545.3z"/>
	<path fill="#FFFFFF" d="M601.7,813.4c13.8,0,26.7-0.5,39,0c9.4,0.5,12.8-3,12.8-12.3c0-12.8,1.5-26.2,2.5-39c-17.8-1-35.6-2-54.3-3
		C601.7,778.8,601.7,795.6,601.7,813.4z"/>
	<path fill="#FFFFFF" d="M227.9,920.6c0,18.8,0,35.1,0,52.8c17.8,0,34.1,0,50.4,0c0-17.8,0-35.1,0-52.8
		C261.5,920.6,245.2,920.6,227.9,920.6z"/>
	<path fill="#FFFFFF" d="M64.9,545.3c0-17.8,0-34.1,0-50.9c-17.8,0-34.1,0-50.4,0c0,17.8,0,34.1,0,50.9
		C32.3,545.3,48.6,545.3,64.9,545.3z"/>
	<path fill="#FFFFFF" d="M1401.7,1080.1c0,19.3,0,35.6,0,52.8c17.8,0,34.1,0,50.4,0c0-17.8,0-35.1,0-52.8
		C1435.3,1080.1,1419,1080.1,1401.7,1080.1z"/>
	<path fill="#FFFFFF" d="M734.1,812.4c8.4-18.3,15.8-34.6,23.2-51.4c-16.8,0-33.1,0-49.4,0c0,16.8,0,33.6,0,51.4
		C718.3,812.4,727.7,812.4,734.1,812.4z"/>
	<path fill="#FFFFFF" d="M841.7,738.3c24.7,0,24.7,0,25.2-30.1c-17.8,0-35.1,0-52.8,0C812.1,738.3,812.1,738.3,841.7,738.3z"/>
	<path fill="#FFFFFF" d="M1056,738.3c25.2,0,25.2,0,23.7-25.7c0-1.5-1-3-2.5-6.4c-16.8,1-34.1,1.5-50.9,2.5
		C1028.4,738.3,1028.4,738.3,1056,738.3z"/>
	<path fill="#FFFFFF" d="M1272.8,920.1c-10.9-0.5-12.3,6.9-10.4,13.8c3.5,12.8-10.4,30.1,8.4,39c5.9,2.5,14.8,0.5,23.7,0.5
		c-1-19.8-1.5-36.5-2.5-53.3C1285.7,920.1,1279.3,920.6,1272.8,920.1z"/>
	<path fill="#FFFFFF" d="M974.1,1280.1c2.5-13.8-3.5-19.8-17.3-17.8c-2.5,0.5-5.4,0-8.4,0c-30.6,0-30.6,0-28.1,30.1
		c17.8,0,35.1,0,52.8,0C973.6,1288.5,973.6,1284,974.1,1280.1z"/>
	<path fill="#FFFFFF" d="M1134.1,729.5c0.5,3.5,4.4,7.9,7.4,7.9c14.8,0.5,29.1,0.5,44.4,0.5c0-11.9,0-20.7,0-30.1
		c-17.3,0-34.6,0-52.3,0C1133.6,716.6,1133.1,723,1134.1,729.5z"/>
	<path fill="#FFFFFF" d="M761.7,1508.2c0,17.8,0,34.1,0,50.9c18.3,1.5,35.1,2.5,51.9,4c0-17.8,0-36,0-54.8
		C794.8,1508.2,778.5,1508.2,761.7,1508.2z"/>
	<path fill="#FFFFFF" d="M1615.1,1614.9c0,17.8,0,34.1,0,52.3c15.3,0,29.6,0.5,43.5-0.5c3,0,7.9-4.4,7.9-7.4
		c0.5-14.8,0.5-29.1,0.5-44.9C1648.6,1614.9,1632.3,1614.9,1615.1,1614.9z"/>
	<path fill="#FFFFFF" d="M265.9,119.6c-42.5,0-84.9,0.5-127.9-0.5c-14.3-0.5-19.3,3.5-18.8,18.3c1,36,0.5,71.6,0.5,108.1
		c0,10.9,0,21.7,0,33.1c54.3,0,106.2,0,160,0c0-50.9-0.5-99.3,0-148.1C280.2,120.1,273.8,119.6,265.9,119.6z"/>
	<path fill="#FFFFFF" d="M1749.4,280.1c43,0,85.9,0,127.9,0c1.5-2.5,2-2.5,2-3c0.5-49.4,1-98.3,0.5-147.7c0-3.5-8.9-8.9-13.3-8.9
		c-30.1-1-60.7-0.5-91.4-0.5c-17.8,0-35.1,0-54.3,0c-0.5,7.9-1,13.8-1,19.8c0,37,0,74.1,0,111.1
		C1720.7,280.1,1720.7,280.1,1749.4,280.1z"/>
	<path fill="#FFFFFF" d="M121.2,1879.6c53.3,0,105.2,0,157.5,0c0-52.8,0-104.7,0-157.5c-53.8,0-105.7,0-157.5,0
		C121.2,1775.4,121.2,1827.7,121.2,1879.6z"/>
	<path fill="#FFFFFF" d="M1203.2,1021.8c0.5-2.5,1.5-3.5,3.5-4c10.9-3.5,21.2-6.9,32.1-10.9c5.9-2,12.3-4,18.3-6.4c0-0.5,0-0.5,0-1
		c-16.8-5.4-33.1-10.9-49.9-15.8c-2.5-0.5-3.5-2-3.5-4.4c-0.5-4.4-1-9.4-1.5-13.8c-5.4-33.1-18.8-63.2-38.5-90.4
		c-1.5-2-1.5-3.5-0.5-5.4c6.9-14.8,13.8-29.1,21.2-43.5c1.5-2.5,2.5-5.4,3.5-7.9c-0.5,0-1,0-1.5,0c-14.8,6.4-30.1,13.3-45.4,19.8
		c-8.9,4-8.9,4-15.8-2c-15.3-11.9-32.1-21.7-50.4-29.1c-15.3-5.9-31.1-9.9-47.9-12.3c-1,0-2.5-1-3-2c-3-9.9-5.9-19.3-8.9-29.1
		c-2-6.9-4.4-13.8-6.4-21.2c-0.5,1.5-1.5,2-1.5,2.5c-7.4,15.3-15.8,30.6-23.2,46.4c-1,2-2.5,3-4.4,3c-3.5,0.5-6.9,0.5-10.4,1
		c-16.3,3-32.1,7.4-47.4,13.8c-16.8,7.4-32.1,16.8-46.4,28.1c-2,1.5-3.5,2-5.9,0.5c-14.3-6.4-28.1-13.3-42.5-19.8
		c-1.5-0.5-2.5-1-4.4-1.5c0,1,0,1,0,1.5c5.9,16.3,12.3,32.6,18.3,48.9c1,2.5,1,4.4-0.5,6.4c-9.4,11.9-16.3,24.2-22.7,37.5
		c-9.9,21.2-15.8,44-18.3,67.2c0,1-1,2.5-2,3c-11.9,4.9-23.7,9.9-36,14.8c-5.4,2.5-10.4,4.4-16.8,6.4c2,0.5,3,1,4.4,1.5
		c14.8,4.4,30.1,8.9,44.9,12.8c4.4,1,5.4,3,6.4,7.4c4.4,37,18.3,70.6,41,100.2c1,1,1.5,3.5,1,4.4c-4.9,15.8-9.9,31.6-15.3,47.4
		c-0.5,1.5-0.5,2.5-1,4.4c1.5-0.5,2-0.5,2.5-1c13.3-5.9,26.2-11.9,39.5-18.3c4.4-2,8.4-3.5,11.9,1c0,0.5,0.5,0.5,0.5,0.5
		c19.8,14.8,41,26.2,64.7,32.6c12.3,3.5,24.7,4.9,37,7.4c1.5,0.5,3.5,0,4.4,2.5c4.4,9.9,8.9,19.8,13.3,29.6c3,6.4,5.4,12.8,8.9,19.8
		c1-2.5,2-4.4,2.5-6.4c5.4-14.3,10.9-28.6,15.8-43c0.5-2,2-2.5,4-3.5c10.9-2.5,21.7-4.4,32.1-7.4c25.2-7.4,47.4-20.7,67.2-37
		c1.5-1.5,2.5-1.5,4-0.5c12.3,5.9,24.7,11.9,37,17.8c4.4,2,8.9,4,13.8,6.4c-0.5-1.5-0.5-2-0.5-2.5c-6.9-16.3-14.3-32.6-21.2-48.9
		c-1.5-2.5-1.5-4.4,0.5-6.9C1186.4,1093.9,1199.8,1059.3,1203.2,1021.8z M1225.4,997.1c2.5,1,5.4,1.5,8.4,2.5c0,0.5,0,0.5,0,0.5
		c-39.5,0.5-79.5,1-119.5,1.5c1.5-4.9,3-9.9,4.4-14.8c2-5.9,4-12.3,5.4-18.3c0.5-3,2-3.5,4.9-2.5
		C1161.2,976.4,1192.8,986.7,1225.4,997.1z M1145.9,1035.6c-2,13.8-7.4,26.2-14.3,38.5c-1-3.5-2-6.4-3-9.4c-2-5.9-3.5-12.3-5.4-18.3
		c-0.5-2-0.5-3,2-4C1131.6,1040.6,1138.5,1038.1,1145.9,1035.6z M1079.3,1057.4c4.9-2,10.4-3.5,15.8-1c1,0.5,1.5,1.5,2.5,2
		c-1,0.5-1.5,2-3,2.5c-10.9,3.5-21.2,6.4-32.1,10.4c-8.9,3.5-16.8,7.4-22.7,14.8c-5.9,6.4-7.4,12.3-3.5,19.8c1,2,2,4.4,3,6.4
		c1.5,3.5,1,6.4-3,7.4c-2.5,0.5-5.4,0.5-7.9,0.5c-2.5-0.5-3-2.5-3-5.4c0.5-4.4,0.5-8.9-2.5-12.8c-8.4,4.4-5.4,12.3-5.9,19.8
		c-3,0-5.9,0-8.9,0c-0.5,0-1.5-1.5-1.5-2.5c-0.5-6.4-0.5-13.8-1-20.2c-0.5-3.5-0.5-3.5-4.4-2.5c0,7.4,0,14.3,0,21.7
		c-3-0.5-5.4-0.5-8.4-0.5c-0.5-6.4-1-12.8-1.5-19.8c-1.5,0-2.5,0-4,0c0,4,0,7.9,0,11.9c0,3.5,1.5,7.4-1,11.4c-0.5-1-0.5-2-1-3
		c-4.4-1-4.4-1-4.4-5.9c0-4,0-8.4,0-12.3c-0.5,0-0.5,0-1.5,0c0,2.5-0.5,4.9-0.5,7.4s0.5,4.9,0.5,7.4c0.5,2-0.5,3-2.5,2.5
		c-1,0-1.5,0-2.5,0c-2.5,0-3-0.5-3-3c0-6.9,0.5-13.8-0.5-20.7c-3-14.8-10.9-26.7-22.7-35.1c-1-0.5-1.5-1-3-1
		c4,4.4,7.4,9.4,12.3,14.8c-4.4-0.5-8.9-1-12.8-1.5c-4-0.5-8.4-1-12.3-1s-7.4-1-10.9-3.5c-9.4-7.4-18.8-14.8-28.1-22.7
		c-0.5-0.5-1.5-2-1.5-3c2.5-10.4,6.9-19.8,15.3-27.2c0.5-0.5,1-0.5,1.5-1c5.4,4.4,10.9,9.4,15.8,13.8c8.9,6.4,17.8,12.3,28.6,14.8
		c1.5,0.5,3.5-0.5,4.4-1.5c5.4-5.4,11.9-8.9,19.8-9.9c3.5-0.5,6.4-3,7.4-6.4c1.5-2.5,1.5-5.9,3-8.9c0.5-1,1.5-2,2.5-2
		c7.4-0.5,14.8-0.5,22.7-1c3,0,4.4,1,6.4,3.5c5.9,8.9,13.8,15.3,22.7,20.2c11.4,5.9,23.2,4.9,34.1-1.5c8.9-5.4,16.3-11.9,24.2-18.3
		c2.5-2.5,4.4-2.5,5.9,0.5c1.5,2.5,2,4.9,3.5,7.4c2,3.5,4,6.4,5.9,9.9c1.5,2,2.5,4.4,3,6.4c0.5,1.5-1,3.5-2,4.4
		c-8.9,6.9-18.8,8.4-29.1,7.4c-11.9-1.5-28.1,7.4-32.6,16.8C1063,1064.3,1070.9,1060.8,1079.3,1057.4z M1066.4,1012.9
		c1.5,2.5,2.5,5.4,3.5,8.9c-4-1.5-6.9-3.5-9.9-4.4c-1.5-0.5-3.5-0.5-5.4,0c-3.5,1.5-6.4,3.5-10.9,5.4c1.5-3.5,2-6.9,3-9.9
		c1-2.5,0.5-4-1.5-5.4c-3-2-6.4-4-8.9-6.9c3.5-0.5,7.4-0.5,10.9-0.5c2.5,0,3.5-0.5,4-3c1.5-4,2.5-7.9,4.4-12.8c2,4,4,7.4,4.9,10.9
		c1.5,3.5,3.5,4.9,6.9,4.9c3,0,5.9,0.5,9.4,0.5c0,0.5,0.5,0.5,0.5,1c-3,2.5-6.4,4.4-9.4,6.4
		C1065.9,1009.5,1065.4,1010.4,1066.4,1012.9z M1122.7,942.8c2.5-5.9,5.4-11.9,8.9-18.3c6.9,12.3,11.9,24.7,15.3,38
		c-2-1-3.5-1.5-4.9-2.5c-4.4-2.5-9.4-4.4-13.8-6.9C1122.7,951.2,1120.7,947.2,1122.7,942.8z M1188.9,977.8c-5.4-2-10.9-4-15.8-5.4
		c-5.4-1.5-7.4-4.4-8.4-9.4c-4-18.8-10.4-37-20.7-53.3c-0.5-1-1-3.5-0.5-4.4c3.5-5.4,6.9-11.4,10.9-17.8
		C1173.6,915.1,1184.4,944.8,1188.9,977.8z M1172.1,830.2c0.5,0.5,0.5,0.5,0.5,0.5c-17.8,19.3-35.1,38.5-52.8,58.3
		c-7.4-6.4-14.8-12.8-22.7-19.3C1122.7,856.9,1147.4,843.5,1172.1,830.2z M1118.3,849.5c-5.4,3.5-11.4,6.4-16.8,10.4
		c-2.5,1.5-4,0.5-5.4-0.5c-6.4-4-12.3-7.9-18.8-11.4c-12.8-6.4-26.2-11.4-40-14.3c-4-0.5-5.9-2.5-6.4-6.4
		c-0.5-5.4-2.5-11.4-3.5-16.8C1045.2,809,1093.6,830.2,1118.3,849.5z M1074.8,866.2c13.3,12.3,23.2,27.2,29.6,44
		c3,8.4,4,17.3,5.4,26.2c2.5,14.3,2.5,28.1,0.5,42.5c-3,18.8-11.4,34.6-27.2,45.9c-0.5,0.5-0.5,0.5-1,0.5
		c4.9-8.9,9.9-17.3,11.9-27.2c1.5-6.4,1-13.3-1.5-19.8c-3.5-8.4-11.4-11.9-21.2-9.9c-10.9,2.5-19.8,8.4-28.1,14.8
		c-8.9,6.4-16.8,13.8-23.2,22.7c-4-3-5.4-6.9-6.4-12.3c-1,2-1.5,3.5-2.5,4.4c-2,4.9-2,4.9-7.9,5.9c-1-4.4-1-8.9-3-12.8
		c-2-4-5.4-6.4-8.4-9.9c-0.5,0.5-1.5,0.5-1.5,1c7.4,6.9,11.4,14.3,4.4,23.2c-9.9-7.9-18.8-16.3-28.1-23.7
		c-9.9-7.4-20.7-12.8-32.6-17.3c1,6.4-4.4,9.4-7.4,13.3c-8.4,10.9-11.4,22.7-5.4,36c0,0.5,0,0.5,0,1c-0.5,0.5-0.5,0.5-0.5,0.5
		c-2.5-3.5-5.9-6.4-7.9-9.9c-6.4-10.4-8.9-21.7-10.9-33.1c-3-20.7-2-42,3.5-62.2c6.4-24.2,21.2-42.5,42.5-55.3
		c17.3-10.4,36-15.8,56.3-16.8C1030.4,838.1,1054.1,847,1074.8,866.2z M1005.2,766c0.5,0,0.5,0,1,0c0,1.5,0,3.5,0,4.4
		c0,18.8,0,37.5,0,56.3c0,4.9,0,4.9-5.4,5.4c-3.5,0.5-6.4,0.5-9.9,0.5c-3.5,0.5-6.4,0.5-9.9,0.5C989.4,811.4,997.3,788.7,1005.2,766
		z M979,809.5c-1.5,7.4-3.5,13.8-4.9,20.7c-0.5,1-1.5,2-2.5,2.5c-22.7,3.5-43,12.8-61.7,25.2c-2,1.5-3.5,1.5-5.4,0.5
		c-5.4-3.5-11.9-6.4-17.8-9.9C913.8,825.8,944.9,814.9,979,809.5z M840.7,835.1c0-0.5,0.5-0.5,0.5-0.5c5.4,2.5,10.9,5.4,16.3,7.9
		c16.3,7.9,32.6,15.8,48.9,23.7c-6.4,6.4-12.3,12.8-18.8,18.8C872.3,868.7,856.5,851.9,840.7,835.1z M887.2,949.2
		c-9.9,4-19.8,7.9-30.6,12.3c5.9-13.8,11.4-27.2,17.3-41C878.3,930.4,882.7,939.8,887.2,949.2z M850.6,885
		c4.4,5.9,8.9,11.9,12.8,16.8c0.5,0.5,0,2-0.5,2.5c-13.8,17.8-19.8,38.5-25.2,60.2c-0.5,3.5-2.5,5.4-5.4,6.4
		c-5.9,1.5-11.9,3.5-17.8,5.4C819,942.8,830.9,912.7,850.6,885z M772.6,1001.6c0-0.5,0-0.5,0-1c36-11.9,72.6-23.7,109.6-36
		c2.5,13.8,4.9,26.7,7.4,40.5C850.1,1004,811.6,1002.5,772.6,1001.6z M888.1,1048c-4.9,9.9-9.9,19.3-15.3,29.6
		c-5.4-13.3-9.9-25.7-15.3-39C867.9,1041.6,877.8,1044.5,888.1,1048z M813.6,1022.3c7.4,2,13.8,3.5,20.7,5.4
		c0.5,0.5,1.5,1.5,1.5,2.5c4,22.2,12.8,42.5,24.2,61.7c1,1.5,1.5,3.5,0.5,4.9c-2.5,6.4-5.9,12.8-9.4,19.8
		C830.9,1089,818,1057.8,813.6,1022.3z M841.2,1164c-0.5-0.5-0.5-0.5-1-0.5c16.8-33.1,33.1-66.7,49.9-100.7
		c9.9,10.9,18.8,20.7,27.7,31.1C892.1,1117.1,866.9,1140.8,841.2,1164z M977,1190.2c-33.1-4.4-62.7-17.3-89.9-37.5
		c6.4-4,12.3-7.4,18.8-10.9c0.5-0.5,2.5,0,3.5,0.5c14.8,10.9,31.6,17.3,49.4,22.2c2.5,0.5,4,1.5,4.4,4.4c1,6.4,4.9,11.4,9.9,15.8
		c1.5,1.5,3.5,3,4.9,4.4C977,1189.7,977,1189.7,977,1190.2z M1007.7,1236.6c0,0.5-0.5,0.5-0.5,2c-6.4-16.8-13.3-32.1-19.8-48.4
		c6.9,1,13.8,1.5,19.8,2.5c0.5,0,2,1.5,2,2.5C1008.6,1209,1008.1,1223.3,1007.7,1236.6z M1038.8,1173.9c-0.5,1.5-1.5,3-2.5,4
		c-5.4,4.4-11.9,6.4-18.8,5.4c-4.9-0.5-7.4-3.5-9.4-8.4c-0.5-2.5-1.5-4.9-2.5-7.4c-0.5,0-0.5,0-0.5,0c-0.5,2-1.5,3.5-1.5,5.4
		c0.5,6.4-4,8.9-9.4,10.9c-6.4,2-12.8,1-17.8-3c-1.5-1.5-3.5-3.5-3.5-5.9c-1-9.4-6.4-15.8-13.8-21.7c-5.4-4-10.9-7.9-15.8-12.3
		c-1-0.5-1.5-3-1-4c3.5-8.9,4.4-17.8,4.4-26.7c0-6.9-1.5-13.8-2.5-20.7c-0.5-4-2.5-7.9-7.4-9.9c-0.5-0.5-0.5-0.5-0.5-1
		c0.5-0.5,1.5-0.5,2.5-1c4.4-2.5,13.8,0,16.3,4.4c4.4,6.4,4.9,13.8,5.9,20.7c1.5,10.4,2,20.7,4.4,31.1c2,9.9,8.9,16.3,18.8,19.3
		c-1-2-2-4-3.5-5.4c-1.5-1.5-3-3.5-4.4-4.9c-4.4-4.4-4.4-9.9-2.5-15.8c4.9-0.5,8.9,2,11.4,5.4c3.5,4.4,6.4,9.4,9.4,13.8
		c0.5,1,1.5,2,2.5,3.5c0.5-4.4-0.5-7.9-1.5-11.9c-1.5-3.5-2.5-6.4-4-9.9c-1-3.5-0.5-4.4,3.5-4.4c0.5,0,1,0,1.5,0
		c6.9-0.5,12.8,0.5,13.8,9.4c0.5,0,0.5-0.5,0.5-0.5c0.5-1.5,1.5-3.5,2.5-5.4c0.5-2,1.5-3,4-3c2.5,0,4.4-0.5,6.9-0.5
		c0.5,2.5,0.5,4.4,0.5,6.4c0,1.5-0.5,3.5,1.5,3c0.5,0,1.5-1.5,1.5-2.5c0.5-1.5,0.5-3,1-4.4c0.5-1,1.5-2.5,2.5-3c2-0.5,3.5,0,4.4,2
		c0.5,2,1.5,3.5,2,4.9c2.5-2,4.4-4,6.4-5.9c1.5-1.5,2.5-1.5,4-0.5c1.5,1,3.5,2,5.4,3.5c0-1.5,0.5-3,0.5-4.4
		c0.5-10.4,0.5-20.7,0.5-31.1c0-3.5,1-7.4,2.5-10.9c1-3.5,3.5-5.4,7.4-6.4c5.4-1.5,8.9,2,7.4,7.4c-2,6.4-4,12.3-4,18.8
		c-0.5,10.9,1.5,21.7,4.4,32.1c1,2.5,0.5,4-1.5,5.4c-6.4,4.9-13.3,10.4-19.8,15.8C1045.2,1160.1,1041.2,1166,1038.8,1173.9z
		 M1052.1,1183.8c3.5-5.4,7.4-10.9,10.9-15.8c1-1.5,2-2.5,2.5-4c3.5-6.4,8.9-10.9,15.8-14.3c5.9-2.5,11.9-6.9,17.3-10.9
		c1.5-1,3-1.5,4.4,0c5.4,3.5,10.9,6.4,16.8,9.9C1099.5,1165.5,1076.8,1176.9,1052.1,1183.8z M1172.1,1166.5c0.5,0.5,0.5,0.5,0.5,1
		l-0.5,0.5c-29.1-28.1-57.8-55.3-86.9-83.5c7.4-5.9,14.8-11.9,22.2-17.8c2-1.5,4-3.5,5.9-4.9c1.5-1.5,2.5-1.5,3.5,0.5
		c3.5,6.4,6.4,12.3,9.9,18.8C1142,1109.2,1157.3,1137.8,1172.1,1166.5z M1154.3,1112.7c-4-6.4-7.4-12.3-10.9-18.3c-0.5-1,0-3,0.5-4
		c11.4-17.8,17.8-37.5,22.2-58.3c0.5-1.5,1.5-3,3-3.5c6.4-2,12.8-3.5,19.8-5.4C1183.9,1055.9,1174.1,1086,1154.3,1112.7z"/>
	<path fill="#FFFFFF" d="M985.9,962.5c5.4,3.5,12.8,3.5,15.8,10.9c0-1.5,0.5-3,0.5-4.4c5.9,0,5.4,6.4,8.9,8.9c0.5-2,1.5-4,1.5-5.9
		c0.5-3.5,2.5-5.4,5.9-6.4c5.9-2.5,11.9-5.4,17.3-8.4c2.5-1.5,4.4-3,4.9-6.4c-20.7,12.8-42.5,16.8-64.7,4.4
		C979,957.6,982.5,960.1,985.9,962.5z"/>
	<path fill="#FFFFFF" d="M1092.1,951.2c0.5,2,1.5,3.5,2.5,5.4c0.5,0,0.5,0,1-0.5c-3.5-15.8-7.4-32.1-4.4-48.4
		c-2.5,5.4-4.4,11.9-6.4,17.8c-0.5,1.5-0.5,4,0,5.4C1086.7,937.8,1089.6,944.3,1092.1,951.2z"/>
	<path fill="#FFFFFF" d="M912.3,948.2c0.5,0.5,1,0.5,1.5,0.5c3.5-6.4,6.9-13.8,10.4-20.2c1.5-3-2-12.3-4.9-15.3
		C920.7,926,916.3,937.4,912.3,948.2z"/>
	<path fill="#FFFFFF" d="M1024.9,1051.9c-6.4-9.4-12.8-18.3-18.8-27.7c-1,0.5-1.5,1-1.5,1c-5.4,8.4-10.9,16.3-16.8,24.7
		c-0.5,1.5-1,3-0.5,4.4c0.5,3,2,5.9,3.5,8.9c3.5,5.4,8.9,8.4,13.8,11.9c2.5,1.5,4.4,1.5,6.4-0.5c6.4-5.4,10.4-12.3,14.3-19.3
		C1025.4,1054.4,1025.4,1052.4,1024.9,1051.9z M1009.1,1067.2c-2.5-2.5-4.9-4.9-6.4-6.9c-0.5-0.5-0.5-2-0.5-2.5
		c0.5-4,1.5-7.9,2.5-11.9c0.5-1.5,1.5-3,2.5-4.4c0.5,0,0.5,0.5,1,0.5c1.5,5.4,4,11.4,4.4,17.3
		C1013.1,1060.3,1010.6,1063.3,1009.1,1067.2z"/>
	<path fill="#FFFFFF" d="M1021.5,1091.9c5.4-0.5,5.4-0.5,3-8.4C1023.5,1086.5,1022.5,1089,1021.5,1091.9z"/>
	<path fill="#FFFFFF" d="M1046.2,1137.8c-1.5,1.5-3,2.5-4.4,4.4c-2.5,3-4.4,5.9-6.4,9.4c-3,4.4-7.4,6.4-12.3,5.4
		c-2-0.5-4.4-0.5-6.4-1.5c1.5,4,3,6.4,6.4,7.4s5.9-1,7.9-3.5c4-4.4,7.4-9.9,11.9-14.3c2.5-3,3-3,5.4,0.5c1-1,2-1.5,2.5-2.5
		c2-2.5,0.5-4.4-0.5-6.4C1048.1,1135.4,1047.2,1137.4,1046.2,1137.8z"/>
	<path fill="#FFFFFF" d="M1026.4,1145.8c0.5-2.5,1-4.4,1.5-6.9c-1.5,0-2.5,0-3.5,0.5c0.5,2.5,0.5,4.4,1,6.4
		C1025.9,1145.3,1026.4,1145.8,1026.4,1145.8z"/>
</g>
</svg>
